<svg xmlns="http://www.w3.org/2000/svg" width="20" height="19" viewBox="0 0 20 19" fill="none">
  <path d="M2.79974 14.6005L3.24164 14.8344L3.39472 14.5453L3.19105 14.2892L2.79974 14.6005ZM4.59948 16.3002L4.88881 15.8925L4.65036 15.7233L4.38598 15.8481L4.59948 16.3002ZM1 18L0.558106 17.7661C0.457376 17.9563 0.489746 18.1897 0.638458 18.3454C0.787169 18.5011 1.01883 18.5441 1.2135 18.4521L1 18ZM6.4 6.10001L6.11099 5.692C5.97865 5.78574 5.9 5.93784 5.9 6.10001H6.4ZM13.6 12.9V13.4C13.7425 13.4 13.8783 13.3392 13.9732 13.2328L13.6 12.9ZM6.95931 5.70383L6.6703 5.29582L6.95931 5.70383ZM8.39236 6.2784L7.89668 6.34401L8.39236 6.2784ZM8.5954 7.8125L9.09108 7.74689L8.5954 7.8125ZM8.33874 8.51897L7.99543 8.15546V8.15546L8.33874 8.51897ZM13.999 12.4525L13.6258 12.1198V12.1198L13.999 12.4525ZM13.4409 11.064L13.5093 10.5687L13.4409 11.064ZM11.7972 10.8368L11.8656 10.3415L11.7972 10.8368ZM11.0304 11.0768L11.3737 11.4403L11.0304 11.0768ZM0.500011 9.5C0.500011 11.5333 1.2121 13.4077 2.40844 14.9117L3.19105 14.2892C2.12723 12.9518 1.50001 11.2942 1.50001 9.5H0.500011ZM10 0.5C4.78061 0.5 0.500011 4.5029 0.500011 9.5H1.50001C1.50001 5.10826 5.27828 1.5 10 1.5V0.5ZM19.5 9.5C19.5 4.5029 15.2194 0.5 10 0.5V1.5C14.7217 1.5 18.5 5.10826 18.5 9.5H19.5ZM10 18.5C15.2194 18.5 19.5 14.4971 19.5 9.5H18.5C18.5 13.8917 14.7217 17.5 10 17.5V18.5ZM4.31015 16.708C5.89791 17.8346 7.8687 18.5 10 18.5V17.5C8.07865 17.5 6.30961 16.9005 4.88881 15.8925L4.31015 16.708ZM1.2135 18.4521L4.81298 16.7524L4.38598 15.8481L0.786497 17.5479L1.2135 18.4521ZM2.35785 14.3665L0.558106 17.7661L1.44189 18.2339L3.24164 14.8344L2.35785 14.3665ZM5.9 6.10001V6.95001H6.9V6.10001H5.9ZM12.7 13.4H13.6V12.4H12.7V13.4ZM5.9 6.95001C5.9 10.5388 8.97177 13.4 12.7 13.4V12.4C9.46943 12.4 6.9 9.93342 6.9 6.95001H5.9ZM6.68901 6.50802L7.24832 6.11184L6.6703 5.29582L6.11099 5.692L6.68901 6.50802ZM7.89668 6.34401L8.09972 7.8781L9.09108 7.74689L8.88803 6.2128L7.89668 6.34401ZM7.99543 8.15546L6.95668 9.1365L7.64331 9.86351L8.68206 8.88247L7.99543 8.15546ZM8.09972 7.8781C8.11239 7.97381 8.07906 8.07648 7.99543 8.15546L8.68206 8.88247C8.99121 8.5905 9.14731 8.17174 9.09108 7.74689L8.09972 7.8781ZM7.24832 6.11184C7.52608 5.91509 7.86539 6.10764 7.89668 6.34401L8.88803 6.2128C8.74789 5.15395 7.49819 4.70939 6.6703 5.29582L7.24832 6.11184ZM13.9732 13.2328L14.3722 12.7853L13.6258 12.1198L13.2268 12.5673L13.9732 13.2328ZM13.5093 10.5687L11.8656 10.3415L11.7287 11.3321L13.3724 11.5593L13.5093 10.5687ZM10.6871 10.7133L9.65668 11.6865L10.3433 12.4135L11.3737 11.4403L10.6871 10.7133ZM11.8656 10.3415C11.4388 10.2825 11.0018 10.4161 10.6871 10.7133L11.3737 11.4403C11.4612 11.3577 11.5928 11.3133 11.7287 11.3321L11.8656 10.3415ZM14.3722 12.7853C15.1203 11.9463 14.5616 10.7141 13.5093 10.5687L13.3724 11.5593C13.5406 11.5825 13.6447 11.682 13.688 11.7898C13.7304 11.8953 13.7193 12.015 13.6258 12.1198L14.3722 12.7853Z" fill="#2C2C2C"/>
</svg>