<svg xmlns="http://www.w3.org/2000/svg" width="38" height="38" viewBox="0 0 38 38" fill="none">
  <path d="M5.42808 29.4296L6.76972 30.1004L7.18468 29.2705L6.62736 28.5286L5.42808 29.4296ZM8.85616 32.8576L9.75711 31.6584L9.01525 31.101L8.18534 31.516L8.85616 32.8576ZM2 36.2857L0.658359 35.6149C0.369618 36.1924 0.4828 36.8898 0.93934 37.3464C1.39588 37.8029 2.09334 37.9161 2.67082 37.6274L2 36.2857ZM12.2857 12.2857L11.3857 11.0857C11.008 11.369 10.7857 11.8136 10.7857 12.2857H12.2857ZM26 26V27.5C26.4425 27.5 26.8624 27.3047 27.1474 26.9662L26 26ZM13.3511 11.4867L12.4511 10.2867L13.3511 11.4867ZM16.0807 12.6455L14.5923 12.8316V12.8316L16.0807 12.6455ZM16.4674 15.7395L17.9559 15.5534V15.5534L16.4674 15.7395ZM15.9786 17.1643L14.9179 16.1036L15.9786 17.1643ZM26.7599 25.0976L25.6126 24.1314L26.7599 25.0976ZM25.6969 22.2971L25.9141 20.8129L25.6969 22.2971ZM22.566 21.8389L22.7832 20.3548L22.566 21.8389ZM21.1056 22.323L22.1663 23.3836V23.3836L21.1056 22.323ZM0.500021 19.1429C0.500021 23.3385 1.88782 27.2144 4.22879 30.3305L6.62736 28.5286C4.66329 25.9142 3.50002 22.6665 3.50002 19.1429H0.500021ZM19.1429 0.5C8.84671 0.5 0.500021 8.84669 0.500021 19.1429H3.50002C3.50002 10.5035 10.5036 3.5 19.1429 3.5V0.5ZM37.7857 19.1429C37.7857 8.84669 29.439 0.5 19.1429 0.5V3.5C27.7822 3.5 34.7857 10.5035 34.7857 19.1429H37.7857ZM19.1429 37.7857C29.439 37.7857 37.7857 29.439 37.7857 19.1429H34.7857C34.7857 27.7822 27.7822 34.7857 19.1429 34.7857V37.7857ZM7.9552 34.0569C11.0714 36.3979 14.9472 37.7857 19.1429 37.7857V34.7857C15.6192 34.7857 12.3716 33.6224 9.75711 31.6584L7.9552 34.0569ZM2.67082 37.6274L9.52698 34.1993L8.18534 31.516L1.32918 34.9441L2.67082 37.6274ZM4.08644 28.7587L0.658359 35.6149L3.34164 36.9565L6.76972 30.1004L4.08644 28.7587ZM10.7857 12.2857V14H13.7857V12.2857H10.7857ZM24.2857 27.5H26V24.5H24.2857V27.5ZM10.7857 14C10.7857 21.4559 16.8299 27.5 24.2857 27.5V24.5C18.4867 24.5 13.7857 19.799 13.7857 14H10.7857ZM13.1857 13.4857L14.2511 12.6867L12.4511 10.2867L11.3857 11.0857L13.1857 13.4857ZM14.5923 12.8316L14.979 15.9255L17.9559 15.5534L17.5691 12.4595L14.5923 12.8316ZM14.9179 16.1036L12.9393 18.0822L15.0607 20.2035L17.0392 18.225L14.9179 16.1036ZM14.979 15.9255C14.9872 15.9912 14.9647 16.0569 14.9179 16.1036L17.0392 18.225C17.7406 17.5236 18.0789 16.5377 17.9559 15.5534L14.979 15.9255ZM14.2511 12.6867C14.3827 12.588 14.5719 12.6683 14.5923 12.8316L17.5691 12.4595C17.263 10.0105 14.4255 8.80592 12.4511 10.2867L14.2511 12.6867ZM27.1474 26.9662L27.9073 26.0638L25.6126 24.1314L24.8526 25.0338L27.1474 26.9662ZM25.9141 20.8129L22.7832 20.3548L22.3488 23.3231L25.4797 23.7813L25.9141 20.8129ZM20.0449 21.2623L18.0822 23.2251L20.2035 25.3464L22.1663 23.3836L20.0449 21.2623ZM22.7832 20.3548C21.7783 20.2077 20.7631 20.5442 20.0449 21.2623L22.1663 23.3836C22.2141 23.3358 22.2818 23.3133 22.3488 23.3231L22.7832 20.3548ZM27.9073 26.0638C29.5298 24.1371 28.4064 21.1777 25.9141 20.8129L25.4797 23.7813C25.6459 23.8056 25.7207 24.0029 25.6126 24.1314L27.9073 26.0638Z" fill="#2C2C2C"/>
</svg>