<svg xmlns="http://www.w3.org/2000/svg" width="19" height="19" viewBox="0 0 19 19" fill="none">
  <path d="M12.05 6.95C11.5058 6.40575 10.7676 6.1 9.99792 6.1H8.65C7.71112 6.1 6.95 6.86112 6.95 7.8C6.95 8.73889 7.71112 9.5 8.65 9.5H10.35C11.2889 9.5 12.05 10.2611 12.05 11.2C12.05 12.1389 11.2889 12.9 10.35 12.9H9.00208C8.2324 12.9 7.49425 12.5942 6.95 12.05M17.1855 10.5207C17.2306 10.1859 17.2609 9.84665 17.2609 9.5C17.2609 5.21378 13.7855 1.73913 9.5 1.73913C9.15335 1.73913 8.81408 1.77017 8.47925 1.81378C7.71499 1.30009 6.79404 1 5.80435 1C3.15087 1 1 3.15087 1 5.80435C1 6.79478 1.3001 7.715 1.81379 8.47926C1.76944 8.81409 1.73913 9.15335 1.73913 9.5C1.73913 13.7862 5.21378 17.2609 9.5 17.2609C9.84591 17.2609 10.1852 17.2306 10.52 17.1862C11.285 17.6999 12.2052 18 13.1957 18C15.8484 18 18 15.8491 18 13.1957C18 12.2052 17.6992 11.285 17.1855 10.5207Z" stroke="#2C2C2C" stroke-linejoin="round"/>
</svg>