<svg xmlns="http://www.w3.org/2000/svg" width="38" height="38" viewBox="0 0 38 38" fill="none">
  <path d="M24.3858 14.0431C23.2973 12.9546 21.821 12.3431 20.2816 12.3431H17.5858C15.708 12.3431 14.1858 13.8653 14.1858 15.7431C14.1858 17.6208 15.708 19.1431 17.5858 19.1431H20.9858C22.8635 19.1431 24.3858 20.6653 24.3858 22.5431C24.3858 24.4208 22.8635 25.9431 20.9858 25.9431H18.2899C16.7506 25.9431 15.2743 25.3316 14.1858 24.2431M34.6567 21.1845C34.7469 20.5149 34.8075 19.8364 34.8075 19.1431C34.8075 10.5706 27.8567 3.62133 19.2858 3.62133C18.5925 3.62133 17.9139 3.68341 17.2443 3.77063C15.7157 2.74324 13.8739 2.14307 11.8945 2.14307C6.58751 2.14307 2.28577 6.44481 2.28577 11.7518C2.28577 13.7326 2.88596 15.5731 3.91335 17.1016C3.82466 17.7712 3.76403 18.4498 3.76403 19.1431C3.76403 27.7155 10.7133 34.6648 19.2858 34.6648C19.9776 34.6648 20.6561 34.6042 21.3258 34.5155C22.8558 35.5429 24.6962 36.1431 26.6771 36.1431C31.9825 36.1431 36.2858 31.8413 36.2858 26.5344C36.2858 24.5535 35.6841 22.7131 34.6567 21.1845Z" stroke="#2C2C2C" stroke-width="3" stroke-linejoin="round"/>
</svg>