<svg xmlns="http://www.w3.org/2000/svg" width="10" height="10" viewBox="0 0 10 10" fill="none">
  <path fill-rule="evenodd" clip-rule="evenodd" d="M0 5.00007C0 4.7042 0.203507 4.46436 0.454545 4.46436H9.54545C9.79649 4.46436 10 4.7042 10 5.00007C10 5.29594 9.79649 5.53578 9.54545 5.53578H0.454545C0.203507 5.53578 0 5.29594 0 5.00007Z" fill="white"/>
  <path fill-rule="evenodd" clip-rule="evenodd" d="M5.43595 0.156903C5.61346 -0.0523041 5.90126 -0.0523006 6.07877 0.156911L9.86657 4.6212C10.0441 4.83041 10.0441 5.1696 9.86657 5.37881L6.07869 9.84309C5.90118 10.0523 5.61338 10.0523 5.43587 9.84309C5.25836 9.63388 5.25836 9.29469 5.43587 9.08548L8.90234 5L5.43594 0.914518C5.25843 0.705306 5.25844 0.36611 5.43595 0.156903Z" fill="white"/>
</svg>