<svg xmlns="http://www.w3.org/2000/svg" width="30" height="31" viewBox="0 0 30 31" fill="none">
  <path d="M26.806 15.5066C27.2202 15.5066 27.5583 15.8427 27.5336 16.2562C27.4256 18.061 26.9288 19.8244 26.0738 21.4241C25.1006 23.2447 23.6935 24.7972 21.9771 25.9441C20.2606 27.091 18.2878 27.7969 16.2334 27.9992C14.179 28.2015 12.1064 27.8941 10.1992 27.1041C8.29196 26.3141 6.60901 25.066 5.2994 23.4702C3.98979 21.8744 3.09393 19.9803 2.6912 17.9556C2.28846 15.9309 2.39127 13.8382 2.99052 11.8627C3.51708 10.1269 4.41265 8.52872 5.6125 7.1762C5.88738 6.86634 6.36412 6.86777 6.65701 7.16067L7.7888 8.29246C8.0817 8.58535 8.07913 9.05841 7.81038 9.3736C6.96783 10.3617 6.33611 11.515 5.95761 12.7628C5.50637 14.2503 5.42895 15.8261 5.73221 17.3507C6.03547 18.8753 6.71005 20.3016 7.69619 21.5032C8.68232 22.7048 9.94958 23.6447 11.3857 24.2395C12.8218 24.8344 14.3825 25.0659 15.9295 24.9135C17.4765 24.7612 18.962 24.2296 20.2545 23.366C21.547 22.5024 22.6065 21.3334 23.3393 19.9625C23.9539 18.8125 24.3227 17.5503 24.4257 16.2559C24.4585 15.843 24.7912 15.5066 25.2054 15.5066H26.806Z" fill="#1B141F"/>
</svg>