<svg xmlns="http://www.w3.org/2000/svg" width="10" height="11" viewBox="0 0 10 11" fill="none">
  <path fill-rule="evenodd" clip-rule="evenodd" d="M0 5.50007C0 5.2042 0.203507 4.96436 0.454545 4.96436H9.54545C9.79649 4.96436 10 5.2042 10 5.50007C10 5.79594 9.79649 6.03578 9.54545 6.03578H0.454545C0.203507 6.03578 0 5.79594 0 5.50007Z" fill="#2C2C2C"/>
  <path fill-rule="evenodd" clip-rule="evenodd" d="M5.43595 0.656903C5.61346 0.447696 5.90126 0.447699 6.07877 0.656911L9.86657 5.1212C10.0441 5.33041 10.0441 5.6696 9.86657 5.87881L6.07869 10.3431C5.90118 10.5523 5.61338 10.5523 5.43587 10.3431C5.25836 10.1339 5.25836 9.79469 5.43587 9.58548L8.90234 5.5L5.43594 1.41452C5.25843 1.20531 5.25844 0.86611 5.43595 0.656903Z" fill="#2C2C2C"/>
</svg>