<svg xmlns="http://www.w3.org/2000/svg" width="11" height="11" viewBox="0 0 11 11" fill="none">
  <path fill-rule="evenodd" clip-rule="evenodd" d="M0.5 5.95661C0.5 5.66075 0.703507 5.4209 0.954545 5.4209H10.0455C10.2965 5.4209 10.5 5.66075 10.5 5.95661C10.5 6.25248 10.2965 6.49233 10.0455 6.49233H0.954545C0.703507 6.49233 0.5 6.25248 0.5 5.95661Z" fill="#2C2C2C"/>
  <path fill-rule="evenodd" clip-rule="evenodd" d="M5.93595 1.11345C6.11346 0.904239 6.40126 0.904242 6.57877 1.11345L10.3666 5.57774C10.5441 5.78695 10.5441 6.12614 10.3666 6.33535L6.57869 10.7996C6.40118 11.0088 6.11338 11.0088 5.93587 10.7996C5.75836 10.5904 5.75836 10.2512 5.93587 10.042L9.40234 5.95654L5.93594 1.87106C5.75843 1.66185 5.75844 1.32265 5.93595 1.11345Z" fill="#2C2C2C"/>
</svg>