<svg width="38" height="38" viewBox="0 0 38 38" fill="none" xmlns="http://www.w3.org/2000/svg">
<g id="button">
<path id="Vector" d="M5.42808 29.5297L6.76972 30.2005L7.18468 29.3706L6.62736 28.6287L5.42808 29.5297ZM8.85616 32.9577L9.75711 31.7585L9.01525 31.2011L8.18534 31.6161L8.85616 32.9577ZM2 36.3858L0.658359 35.715C0.369618 36.2925 0.4828 36.9899 0.93934 37.4465C1.39588 37.903 2.09334 38.0162 2.67082 37.7275L2 36.3858ZM12.2857 12.3858L11.3857 11.1858C11.008 11.4691 10.7857 11.9137 10.7857 12.3858H12.2857ZM26 26.1001V27.6001C26.4425 27.6001 26.8624 27.4048 27.1474 27.0663L26 26.1001ZM13.3511 11.5868L12.4511 10.3868L13.3511 11.5868ZM16.0807 12.7456L14.5923 12.9317V12.9317L16.0807 12.7456ZM16.4674 15.8396L17.9559 15.6535V15.6535L16.4674 15.8396ZM15.9786 17.2644L14.9179 16.2037L15.9786 17.2644ZM26.7599 25.1977L25.6126 24.2315L26.7599 25.1977ZM25.6969 22.3972L25.9141 20.913L25.6969 22.3972ZM22.566 21.939L22.7832 20.4549L22.566 21.939ZM21.1056 22.4231L22.1663 23.4837V23.4837L21.1056 22.4231ZM0.500021 19.243C0.500021 23.4386 1.88782 27.3145 4.22879 30.4306L6.62736 28.6287C4.66329 26.0143 3.50002 22.7666 3.50002 19.243H0.500021ZM19.1429 0.600098C8.84671 0.600098 0.500021 8.94679 0.500021 19.243H3.50002C3.50002 10.6036 10.5036 3.6001 19.1429 3.6001V0.600098ZM37.7857 19.243C37.7857 8.94679 29.439 0.600098 19.1429 0.600098V3.6001C27.7822 3.6001 34.7857 10.6036 34.7857 19.243H37.7857ZM19.1429 37.8858C29.439 37.8858 37.7857 29.5391 37.7857 19.243H34.7857C34.7857 27.8823 27.7822 34.8858 19.1429 34.8858V37.8858ZM7.9552 34.157C11.0714 36.498 14.9472 37.8858 19.1429 37.8858V34.8858C15.6192 34.8858 12.3716 33.7225 9.75711 31.7585L7.9552 34.157ZM2.67082 37.7275L9.52698 34.2994L8.18534 31.6161L1.32918 35.0442L2.67082 37.7275ZM4.08644 28.8588L0.658359 35.715L3.34164 37.0566L6.76972 30.2005L4.08644 28.8588ZM10.7857 12.3858V14.1001H13.7857V12.3858H10.7857ZM24.2857 27.6001H26V24.6001H24.2857V27.6001ZM10.7857 14.1001C10.7857 21.556 16.8299 27.6001 24.2857 27.6001V24.6001C18.4867 24.6001 13.7857 19.8991 13.7857 14.1001H10.7857ZM13.1857 13.5858L14.2511 12.7868L12.4511 10.3868L11.3857 11.1858L13.1857 13.5858ZM14.5923 12.9317L14.979 16.0256L17.9559 15.6535L17.5691 12.5596L14.5923 12.9317ZM14.9179 16.2037L12.9393 18.1823L15.0607 20.3036L17.0392 18.3251L14.9179 16.2037ZM14.979 16.0256C14.9872 16.0913 14.9647 16.157 14.9179 16.2037L17.0392 18.3251C17.7406 17.6237 18.0789 16.6378 17.9559 15.6535L14.979 16.0256ZM14.2511 12.7868C14.3827 12.6881 14.5719 12.7684 14.5923 12.9317L17.5691 12.5596C17.263 10.1106 14.4255 8.90601 12.4511 10.3868L14.2511 12.7868ZM27.1474 27.0663L27.9073 26.1639L25.6126 24.2315L24.8526 25.1339L27.1474 27.0663ZM25.9141 20.913L22.7832 20.4549L22.3488 23.4232L25.4797 23.8814L25.9141 20.913ZM20.0449 21.3624L18.0822 23.3252L20.2035 25.4465L22.1663 23.4837L20.0449 21.3624ZM22.7832 20.4549C21.7783 20.3078 20.7631 20.6443 20.0449 21.3624L22.1663 23.4837C22.2141 23.4359 22.2818 23.4134 22.3488 23.4232L22.7832 20.4549ZM27.9073 26.1639C29.5298 24.2372 28.4064 21.2778 25.9141 20.913L25.4797 23.8814C25.6459 23.9057 25.7207 24.103 25.6126 24.2315L27.9073 26.1639Z" fill="#2C2C2C"/>
</g>
</svg>
