<svg width="38" height="38" viewBox="0 0 38 38" fill="none" xmlns="http://www.w3.org/2000/svg">
<g id="button">
<path id="Vector" d="M24.3852 14.1429C23.2967 13.0544 21.8204 12.4429 20.281 12.4429H17.5852C15.7074 12.4429 14.1852 13.9652 14.1852 15.8429C14.1852 17.7207 15.7074 19.2429 17.5852 19.2429H20.9852C22.8629 19.2429 24.3852 20.7652 24.3852 22.6429C24.3852 24.5207 22.8629 26.0429 20.9852 26.0429H18.2893C16.75 26.0429 15.2736 25.4314 14.1852 24.3429M34.6561 21.2844C34.7463 20.6147 34.8069 19.9362 34.8069 19.2429C34.8069 10.6705 27.8561 3.72118 19.2852 3.72118C18.5919 3.72118 17.9133 3.78327 17.2437 3.87049C15.7151 2.84309 13.8732 2.24292 11.8939 2.24292C6.5869 2.24292 2.28516 6.54466 2.28516 11.8516C2.28516 13.8325 2.88535 15.6729 3.91274 17.2014C3.82405 17.8711 3.76342 18.5496 3.76342 19.2429C3.76342 27.8154 10.7127 34.7647 19.2852 34.7647C19.977 34.7647 20.6555 34.7041 21.3252 34.6154C22.8552 35.6427 24.6956 36.2429 26.6765 36.2429C31.9819 36.2429 36.2852 31.9412 36.2852 26.6342C36.2852 24.6534 35.6835 22.8129 34.6561 21.2844Z" stroke="#2C2C2C" stroke-width="3" stroke-linejoin="round"/>
</g>
</svg>
